<svg xmlns="http://www.w3.org/2000/svg" viewBox="0 0 531.05 522.14">
	<path d="M0 316.2q6.69-6.36 13.62-12.43a755.1 755.1 0 0 1 13.91-12.06q14-11.9 28.42-23.31T85 245.9q14.64-11.09 29.6-21.77l2.89-2.06 2.23 2.45q5.24 5.73 10.4 11.52t10.23 11.67c3.4 3.91 6.7 7.91 10.05 11.86s6.59 8 9.76 12.14c-4-3.3-7.93-6.7-11.84-10.11s-7.76-6.88-11.57-10.39-7.61-7-11.37-10.57-7.5-7.12-11.21-10.72l5.12.38q-14.28 11.58-28.87 22.73t-29.43 22q-14.87 10.8-30.05 21.18c-5.06 3.46-10.18 6.84-15.33 10.19S5.28 313.03 0 316.2ZM150.84 231.46l11.66-9.58 11.72-9.47 23.55-18.8 23.71-18.63 23.82-18.46 2.42-1.87 2.3 2.23q8.53 8.29 17 16.71l16.93 16.77c5.66 5.57 11.25 11.2 16.85 16.84l16.8 16.88-5.19-.83c6.07-3.11 12.11-6.26 18.21-9.32l18.25-9.21 3-1.51 2.25 2.44 17.11 18.66 17 18.78 17 18.8 16.85 18.9c5.63 6.29 11.19 12.64 16.76 19s11.16 12.67 16.67 19.07a2639.48 2639.48 0 0 1 32.91 38.53c-12.09-11.81-24-23.8-35.83-35.83-6-6-11.81-12.07-17.7-18.11s-11.78-12.1-17.61-18.21l-17.62-18.26-17.41-18.39-17.39-18.4-17.25-18.53 5.23.94-18.18 9.38c-6.06 3.13-12.16 6.17-18.24 9.25l-2.91 1.48-2.27-2.32-16.68-17c-5.56-5.67-11.12-11.33-16.62-17.06l-16.55-17.13q-8.3-8.55-16.5-17.19l4.72.36-24.49 17.56-24.61 17.4-24.74 17.16-12.43 8.49ZM244.9 133.53c-3.09-1.06-6.26-2.22-9.49-3.43s-6.51-2.5-9.83-3.79l-.66-.26-.32-.9c-1.25-3.56-2.41-7.14-3.62-10.71l-3.59-10.73-.35-1 .62-1.14q3.76-7 7.58-14l3.85-7 3.87-6.93.41-.74.83-.53 8.6-5.52 8.65-5.45.72-.45.9-.11 7.5-.9 7.5-.83 9.57-1.07-6 7.49c-1.66 2.07-3.36 4.12-5.05 6.17s-3.37 4.11-5.08 6.14l.46-4q3.12 6.9 6.15 13.85l6 13.93.55 1.31-.53 1.09c-1.83 3.79-3.75 7.54-5.63 11.31l-2.84 5.64c-.93 1.89-1.93 3.75-2.89 5.63l-.34.67-.51.19c-2.92 1.09-5.8 2.18-8.65 3.15-1.42.49-2.83 1-4.22 1.47Zm0 0 4-2.4 3.91-2.32c2.57-1.54 5.11-3 7.6-4.4l-.85.86c.76-2 1.49-3.94 2.28-5.9l2.33-5.87c1.55-3.91 3.08-7.84 4.68-11.74v2.4q-3.54-6.71-7-13.47t-6.79-13.55l-1-2 1.46-1.93c1.62-2.11 3.25-4.2 4.89-6.3s3.27-4.19 4.93-6.26l3.55 6.42-7.5.89-7.5.83 1.62-.56-8.76 5.26-8.81 5.19 1.24-1.26-4.18 6.76-4.19 6.75q-4.22 6.74-8.5 13.43l.26-2.17 2.77 11c.91 3.66 1.87 7.31 2.74 11l-1-1.15c2.85 1.67 5.76 3.31 8.69 5.11s6.05 3.49 9.13 5.38ZM294.68 108.64c.91-.62 1.87-1.33 2.85-2.11s2-1.64 3.13-2.56a85.27 85.27 0 0 1 7.32-5.43l.35-.23.66-.05a195.86 195.86 0 0 1 14.54-.51h8.41l-7 4.63a225.87 225.87 0 0 1-13.41 8.23l-.65.36h-.48a83.31 83.31 0 0 1-8.59-1.14c-1.32-.26-2.59-.49-3.77-.68s-2.27-.41-3.36-.51Zm0 0a63.53 63.53 0 0 0 8.63-.83c2.57-.41 4.82-.73 7.13-.87l-1.12.33a206.77 206.77 0 0 1 12.84-9.11l1.39 4.58q-3.64 0-7.27-.1c-2.43-.07-4.85-.17-7.27-.33l1-.28a70.58 70.58 0 0 1-7 2.92c-1.3.48-2.64 1-4 1.62s-2.85 1.3-4.33 2.07ZM196.65 108.64q-2.2-1.16-4.3-2.07a91.3 91.3 0 0 0-4-1.62 70.58 70.58 0 0 1-7-2.92l1 .28a251.77 251.77 0 0 1-14.54.43l1.38-4.58a240.17 240.17 0 0 1 12.84 9.11l-1.12-.33c2.31.14 4.56.46 7.14.87a62.58 62.58 0 0 0 8.6.83Zm0 0c-1 .1-2.16.23-3.33.43s-2.45.42-3.77.68a83.31 83.31 0 0 1-8.59 1.14h-.47l-.65-.36a240 240 0 0 1-13.42-8.23l-7-4.63h8.41a220.34 220.34 0 0 1 14.54.51l.67.05.34.23a83.73 83.73 0 0 1 7.29 5.52c1.09.92 2.13 1.78 3.13 2.56s1.97 1.44 2.85 2.1ZM245.59 38.83c-.35-1-.77-2.16-1.26-3.32s-1-2.4-1.62-3.7a86.76 86.76 0 0 1-3.25-8.52l-.13-.39.13-.66c.49-2.38 1-4.74 1.6-7.1s1.19-4.7 1.83-7l2.22-8.11 2.56 8c.8 2.5 1.57 5 2.29 7.53s1.4 5.06 2 7.61l.17.73-.16.44a83.37 83.37 0 0 1-3.41 8c-.61 1.2-1.17 2.36-1.67 3.44s-.92 2.07-1.3 3.05Zm0 0a64.7 64.7 0 0 0 1.53-8.53c.3-2.59.6-4.84 1.09-7.11v1.17c-1-2.44-1.89-4.9-2.78-7.37s-1.72-5-2.52-7.45l4.78-.1c-.65 2.33-1.33 4.66-2.05 7s-1.48 4.62-2.29 6.91v-1a71.81 71.81 0 0 1 .92 7.53c.12 1.38.26 2.82.48 4.32s.5 3 .84 4.63ZM287.56 64.49c.6-.9 1.23-1.89 1.85-2.95s1.27-2.23 1.94-3.46a85 85 0 0 1 4.76-7.58l.25-.35.63-.29a231.57 231.57 0 0 1 13.5-5.43l7.54-2.78-4.65 6.56a216.31 216.31 0 0 1-9.33 12.32l-.49.6-.48.13a83.32 83.32 0 0 1-8.46 1.85c-1.33.21-2.6.43-3.78.65s-2.27.46-3.28.73Zm0 0a67.83 67.83 0 0 0 7.82-3.72 70.37 70.37 0 0 1 6.42-3.24l-1 .73a206.31 206.31 0 0 1 8.47-12.93l2.9 3.79c-2.28.82-4.57 1.62-6.87 2.38s-4.62 1.48-6.95 2.15l.88-.64a72.2 72.2 0 0 1-5.37 5.15 67.34 67.34 0 0 0-6.3 6.33ZM211.3 64.49c-1.13-1.23-2.23-2.36-3.35-3.41s-2.19-2-3.24-2.9a72.76 72.76 0 0 1-5.59-5.13l.86.61a224.31 224.31 0 0 1-13.82-4.54l2.86-3.84c1.56 2.11 3.1 4.23 4.6 6.38s3 4.34 4.37 6.55l-.94-.68a70.37 70.37 0 0 1 6.42 3.24 69.03 69.03 0 0 0 7.83 3.72Zm0 0c-1-.27-2.11-.52-3.28-.74s-2.45-.44-3.78-.64a84.09 84.09 0 0 1-8.47-1.85l-.45-.13-.49-.56c-1.72-2-3.38-4-5-6.07s-3.23-4.13-4.8-6.23l-5-6.75 7.89 2.91c2.27.84 4.54 1.7 6.79 2.6s4.49 1.84 6.7 2.83l.62.27.24.33a83.19 83.19 0 0 1 5 7.6c.72 1.23 1.4 2.4 2.07 3.47s1.32 2.06 1.96 2.96ZM302.11 522.13a283.7 283.7 0 0 1 17.49-10.11c3-1.6 5.93-3.15 8.91-4.68s6-3 9-4.5l-1.68 1.43 3.76-6.46 3.83-6.4q3.9-6.37 7.89-12.67a686.26 686.26 0 0 1 12.33-18.69c1.41-2.05 2.81-4.1 4.25-6.13v4.16c-1.79-3.18-3.52-6.39-5.24-9.61s-3.4-6.48-5-9.74a293.14 293.14 0 0 1-9.26-20c4.82 5.6 9.27 11.43 13.62 17.31q3.26 4.41 6.4 8.9c2.09 3 4.18 6 6.2 9l1.27 1.9-1.31 2.27c-1.25 2.15-2.51 4.3-3.8 6.42s-2.56 4.27-3.87 6.38A723.52 723.52 0 0 1 350.73 496l-4.21 6.16-4.29 6.11-.76 1.09-.92.34a588.33 588.33 0 0 1-18.97 6.67 279.7 279.7 0 0 1-19.47 5.76Z" fill="white" />
	<path d="M291.52 495.86a124.17 124.17 0 0 1 20.65.79c6.78.77 13.48 1.88 20.12 3.29s13.21 3.12 19.71 5.17a122 122 0 0 1 19.18 7.7 121 121 0 0 1-20.65-.78 211.68 211.68 0 0 1-39.83-8.48 123.26 123.26 0 0 1-19.18-7.69ZM332.92 487.39c4.56-.28 9.12-.5 13.68-.74l13.69-.61 13.68-.52c4.56-.16 9.12-.36 13.69-.48l-2 1.12 7.75-13.52c2.58-4.5 5.14-9 7.77-13.5l15.69-26.91 2.49 5.7-38.11-7.31-19-3.72-19-3.78-1.49-.3-1-1.18q-10.53-12.25-21-24.57c-7-8.2-13.9-16.45-20.84-24.69l-.91-1.09-.1-1.33-2.62-35.21c-.44-5.86-.79-11.74-1.19-17.61l-1.16-17.62.2.85-4.58-13.06-4.55-13.07c-1.53-4.35-3-8.73-4.47-13.1l-4.43-13.11-1.08-3.19 2.88 1.53 12.66 6.73c4.21 2.28 8.43 4.53 12.61 6.85-4.42-1.82-8.82-3.7-13.23-5.55l-13.18-5.66 1.8-1.65 5.43 12.73c1.79 4.25 3.63 8.49 5.39 12.75l5.31 12.78 5.28 12.79.14.33.06.51 1.9 17.55c.62 5.85 1.3 11.7 1.87 17.56l3.51 35.13-1-2.42c7 8.15 14.11 16.28 21.11 24.47s14 16.36 21 24.58l-2.51-1.48 19 4 19 4 37.94 8.16 5.38 1.15-2.9 4.55-16.76 26.26c-2.77 4.39-5.62 8.73-8.45 13.09l-8.48 13.07-.75 1.16h-1.25c-4.57-.11-9.13-.32-13.69-.48l-13.68-.52-13.69-.61c-4.69-.32-9.25-.53-13.81-.81Z" fill="white" />
	<path d="M341.52 264.51c2.35 1 4.67 2.11 7 3.17s4.66 2.14 7 3.23l.12.09c3.27 2.57 6.58 5.1 9.82 7.7l9.77 7.76.32.26.23.5 5.29 11.39 5.26 11.41-.26-.47c5.51 7.62 11 15.2 16.51 22.85L419 355.31l.4.57.18.8c.82 3.77 1.69 7.54 2.47 11.33l2.38 11.35 2.39 11.35c.79 3.79 1.62 7.56 2.36 11.36l-1.21-2.26 24.24 23.65a3003.5 3003.5 0 0 1 24.14 23.75l24 23.84 23.89 24 6.71 6.75-9.44-.07c-7 0-14.07-.11-21.11-.22l-21.1-.28h-1.66l-.87-1.25c-5.85-7.41-11.72-14.79-17.5-22.25l-17.38-22.35a2453.74 2453.74 0 0 1-34.24-45.05q9.52 10.5 18.86 21.14c6.27 7.06 12.44 14.21 18.66 21.31l18.5 21.43c6.18 7.13 12.27 14.34 18.38 21.53l-2.63-1.25 21.1-.28c7-.11 14.07-.16 21.11-.22l-2.73 6.68-24.46-23.49-24.25-23.64a2703.24 2703.24 0 0 1-24.17-23.72l-24.07-23.84-1-.95-.25-1.31c-.74-3.79-1.39-7.61-2.09-11.41l-2-11.41-2.05-11.42c-.7-3.8-1.31-7.62-2-11.43l.57 1.36-15.76-23.34c-5.28-7.77-10.46-15.6-15.69-23.41l-.18-.27-.08-.2-4.76-11.62-4.74-11.59.56.76-9-8.62c-3-2.85-6-5.78-9-8.67l.17.11c-2.2-1.31-4.39-2.63-6.58-4s-4.38-2.69-6.55-4.05Z" fill="white" />
	<path d="M406.77 344.04q-.54-4.35-.92-8.7c-.29-2.9-.51-5.8-.72-8.7-.46-5.8-.76-11.6-1-17.4a896.4 896.4 0 0 1-.85-34.77l1 2.84c-4.5-5.15-8.88-10.41-13.22-15.7s-8.57-10.63-12.69-16.13-8.18-11-12.09-16.63-7.72-11.38-11.2-17.38c5.28 4.5 10.2 9.31 15.07 14.15s9.56 9.84 14.19 14.89 9.12 10.2 13.57 15.4 8.8 10.47 13.05 15.83l1 1.32v1.52q-.5 17.37-1.66 34.74a597.23 597.23 0 0 1-2.38 26.04c-.35 2.89-.69 5.78-1.15 8.68ZM306.39 279.53l12.09-3.84 7.82 6.18 2.92 8.2v9.33l-2.92-2.3-8.49-1.76-5.57-6.31v-4.23l-5.85-5.27z" fill="white" />
	<path d="M306.38 279.52c1.41-.76 3-1.8 4.9-3a66.47 66.47 0 0 1 6.39-3.41l.94-.43 1.51.88a169.46 169.46 0 0 1 8.53 5.28l.66.43.57 1.28c.58 1.33 1.19 2.65 1.75 4s1.15 2.67 1.67 4l.21.54v.91c.08 1.56.14 3.12.15 4.67v4.67l-.1 9.26-7.11-5.76c-.48-.39-.94-.82-1.41-1.22s-.94-.82-1.39-1.25l1.77.82c-1.4-.37-2.8-.72-4.19-1.14s-2.79-.79-4.17-1.23l-1.48-.48-.5-.67c-.84-1.14-1.64-2.3-2.44-3.47s-1.58-2.34-2.34-3.54l-.73-1.13.08-.57q.33-2.12.72-4.23l.62 1.38a42.42 42.42 0 0 1-2.68-3.69c-.73-1.11-1.33-2.11-1.93-2.9Zm0 0a27.57 27.57 0 0 0 3.92 2.32c1.2.59 2.24 1.06 3.18 1.58l.4.21.21 1.16c.26 1.41.51 2.82.72 4.23l-.64-1.7a142.15 142.15 0 0 1 6.34 5.62l-2-1.15c1.45.15 2.89.33 4.32.52s2.87.41 4.3.62l.61.09 1.16.73c.53.34 1 .7 1.54 1.06s1 .71 1.52 1.09l-7.22 3.5c0-1.56-.06-3.11 0-4.67s.07-3.11.14-4.67l.26 1.46c-.45-1.38-.84-2.78-1.26-4.17s-.78-2.8-1.17-4.2l1.22 1.7c-1.2-1.16-2.42-2.29-3.6-3.49s-2.35-2.38-3.5-3.6l2.44.45c-1.75.22-3.56.32-5.7.43a55.36 55.36 0 0 0-7.19.88ZM350.84 325.52l-9.68 1.46-9.53 1.36c-6.32.93-12.56 1.74-18.75 2.57l1.66-2.69c3.24 7.37 6.37 14.79 9.54 22.2l9.45 22.24 9.31 22.29 9.22 22.33-4.19-2.53c6.92-.86 13.85-1.73 20.78-2.54s13.86-1.62 20.8-2.37l20.82-2.22 20.83-2.06-2.63 7.21-9.79-10.51-9.73-10.6c-6.47-7.11-12.94-14.25-19.38-21.5s-12.91-14.53-19.34-22q-4.86-5.53-9.69-11.2c-3.24-3.77-6.46-7.58-9.7-11.44Zm0 0q5.23 4.76 10.48 9.65t10.5 9.85c7 6.6 14 13.39 21 20.16s14 13.69 21 20.63l10.44 10.46 10.4 10.55 6.11 6.16-8.74 1-20.8 2.42c-6.93.76-13.87 1.55-20.81 2.25s-13.88 1.44-20.83 2.11-13.9 1.31-20.85 1.94l-3.12.29-1.07-2.82-8.58-22.58-8.48-22.62-8.35-22.68c-2.77-7.56-5.56-15.12-8.25-22.71l-.92-2.57 2.57-.12c6.52-.3 13-.62 19.39-.82l9.54-.34ZM336.65 467.05a136.2 136.2 0 0 1 21.21 5c6.88 2.14 13.62 4.61 20.24 7.36s13.13 5.79 19.49 9.15a135.52 135.52 0 0 1 18.51 11.53 134.91 134.91 0 0 1-21.22-5q-10.32-3.21-20.24-7.37a237.99 237.99 0 0 1-19.48-9.16 137.43 137.43 0 0 1-18.51-11.51ZM247.41 179.12l15.69 20.91-18.12-6.63-30.73 15.27 33.16-29.55z" fill="white" />
	<path d="m247.41 179.12 8.29 9.66 4.31 5.08 4.32 5.24 3.27 4-5-1.6-9.17-3-9.15-3.07 1.68-.09q-15.12 8.15-30.61 15.52l-16.23 7.75 13.56-11.7c2.92-2.52 5.86-5 8.81-7.44s5.92-4.8 8.85-7.15 5.85-4.6 8.72-6.77 5.63-4.38 8.35-6.43Zm0 0-8.19 8.38-7.87 8-7.73 7.63q-3.87 3.72-7.78 7.33l-2.67-4q15.25-7.87 30.86-15l.89-.41.78.31 9 3.57q4.49 1.77 9 3.61l-1.84 2.44-3.53-5.21-3.56-5.41-3.63-5.54ZM335.86 286.54c.62-6.68 1.13-13.17 1.59-19.48l1.22-18.48c.76-12 1.7-23.38 3.06-34.84l5.9 4.43c-4.64 2.21-9.31 4.34-14 6.51s-9.34 4.26-14 6.33-9.38 4.16-14.1 6.18-9.44 4-14.17 6l1.24-6.56c3.52 3.81 7 7.65 10.44 11.59s6.87 8 10.37 12.14l5.32 6.34q2.7 3.22 5.49 6.48 5.55 6.59 11.64 13.36Zm0 0a902 902 0 0 0-11.44-10.19l-12.28-10.7a673.81 673.81 0 0 1-25.35-23.3l-4.14-4 5.38-2.55c4.64-2.2 9.27-4.43 13.93-6.57s9.33-4.3 14-6.41 9.37-4.17 14.06-6.26 9.42-4.1 14.15-6.08l7.06-2.95-1.17 7.37a689.8 689.8 0 0 1-7 37.38l-3.81 17.63c-1.17 5.73-2.34 11.27-3.39 16.63Z" fill="white" />
</svg>
